<?xml version="1.0" encoding="UTF-8" standalone="no"?>
<!-- Created with Inkscape (http://www.inkscape.org/) -->

<svg
   width="224mm"
   height="224mm"
   viewBox="0 0 224 224"
   version="1.1"
   id="svg5"
   inkscape:version="1.1.2 (b8e25be833, 2022-02-05)"
   sodipodi:docname="rotating-text2.svg"
   xmlns:inkscape="http://www.inkscape.org/namespaces/inkscape"
   xmlns:sodipodi="http://sodipodi.sourceforge.net/DTD/sodipodi-0.dtd"
   xmlns="http://www.w3.org/2000/svg"
   xmlns:svg="http://www.w3.org/2000/svg">
  <sodipodi:namedview
     id="namedview7"
     pagecolor="#ffffff"
     bordercolor="#666666"
     borderopacity="1.0"
     inkscape:pageshadow="2"
     inkscape:pageopacity="0.0"
     inkscape:pagecheckerboard="0"
     inkscape:document-units="mm"
     showgrid="false"
     width="211mm"
     inkscape:zoom="16.085846"
     inkscape:cx="133.12946"
     inkscape:cy="264.89125"
     inkscape:window-width="1920"
     inkscape:window-height="991"
     inkscape:window-x="-9"
     inkscape:window-y="-9"
     inkscape:window-maximized="1"
     inkscape:current-layer="text1432" />
  <defs
     id="defs2">
    <rect
       x="0"
       y="-73.605081"
       width="2353.3733"
       height="175.06073"
       id="rect19072" />
    <rect
       x="11.25333"
       y="-165.98662"
       width="3378.8125"
       height="261.63992"
       id="rect61075" />
    <rect
       x="-205.37328"
       y="-219.43994"
       width="3803.6255"
       height="388.2399"
       id="rect57231" />
    <rect
       x="-31.829224"
       y="-135.2742"
       width="4408.3477"
       height="234.74052"
       id="rect46866" />
    <rect
       x="1655.1198"
       y="-51.722488"
       width="1082.1936"
       height="204.90063"
       id="rect26311" />
    <rect
       x="899.1756"
       y="15.914612"
       width="3.978653"
       height="63.658447"
       id="rect22435" />
    <style
       id="style8">            
         @import url(https://fonts.googleapis.com/css?family=Playfair+Display);
      </style>
  </defs>
  <g
     inkscape:label="Livello 1"
     inkscape:groupmode="layer"
     id="layer1">
    <g
       aria-label="Digital Humanist - Web Developer - Junior Researcher - "
       id="text2855"
       style="font-size:16.9333px;line-height:1.75;font-family:'Altform TRIAL';-inkscape-font-specification:'Altform TRIAL';letter-spacing:0.0661458px;fill:#000000;stroke-width:0.264583">
      <g
         aria-label="Digital Humanist - * - Web Developer  - * - Junior Researcher - * -"
         id="text1432"
         style="font-size:14.8167px;line-height:1.25;letter-spacing:0.79375px;word-spacing:3.175px;stroke-width:0.0700042;fill:#000000">
        <path
           d="m 201.47557,116.4154 c -0.20025,3.34258 1.68955,5.74166 4.81028,5.92862 3.09115,0.18518 5.19292,-1.94508 5.39494,-5.31724 l 0.19848,-3.313 -10.20523,-0.61138 z m 9.19043,-1.52747 -0.12671,2.115 c -0.15595,2.60307 -1.75165,4.21445 -4.17724,4.06913 -2.45517,-0.14708 -3.90447,-1.97057 -3.7503,-4.54406 l 0.12671,-2.115 z"
           style="fill:#ffffff"
           id="path43458" />
        <path
           d="m 208.96591,126.45518 c -0.0677,0.4543 0.23372,0.84379 0.68802,0.91152 0.4543,0.0677 0.84161,-0.21907 0.90934,-0.67336 0.0677,-0.4543 -0.21907,-0.84161 -0.67337,-0.90934 -0.45429,-0.0677 -0.85626,0.21688 -0.92399,0.67118 z m -8.45743,-0.64675 7.13685,1.06406 0.17916,-1.20169 -7.13684,-1.06406 z"
           style="fill:#ffffff"
           id="path43460" />
        <path
           d="m 196.45226,131.23165 c -0.50627,2.1945 0.45891,3.87693 2.89884,4.43983 l 6.19368,1.4289 0.26979,-1.16944 -1.11169,-0.25646 c 0.9595,-0.40209 1.59247,-1.16841 1.84561,-2.26566 0.46964,-2.03568 -0.6477,-3.78363 -2.71225,-4.25993 -2.06456,-0.4763 -3.84916,0.60216 -4.3188,2.63785 -0.25314,1.09725 -0.005,2.06675 0.68428,2.8341 l -0.73631,-0.16987 c -1.66031,-0.38304 -2.33449,-1.48134 -1.98809,-2.98283 0.25647,-1.11169 0.79949,-1.88356 1.65459,-2.29452 l -0.62419,-0.91951 c -1.07165,0.55868 -1.72904,1.56267 -2.05546,2.97754 z m 4.05693,0.93595 c 0.32642,-1.41488 1.59574,-2.17125 3.05392,-1.83484 1.45819,0.33641 2.25343,1.56908 1.92701,2.98395 -0.32641,1.41487 -1.5813,2.17457 -3.03948,1.83817 -1.45819,-0.33641 -2.26786,-1.57241 -1.94145,-2.98728 z"
           style="fill:#ffffff"
           id="path43462" />
        <path
           d="m 205.49774,141.48597 c -0.13823,0.43802 0.0983,0.87002 0.53635,1.00826 0.43802,0.13823 0.86557,-0.0842 1.0038,-0.52222 0.13823,-0.43802 -0.0842,-0.86557 -0.52222,-1.0038 -0.43802,-0.13823 -0.8797,0.0797 -1.01793,0.51776 z m -8.25093,-1.96683 6.8812,2.17158 0.36565,-1.15864 -6.88121,-2.17158 z"
           style="fill:#ffffff"
           id="path43464" />
        <path
           d="m 195.25593,144.64965 c -0.24966,0.6501 -0.28763,1.28626 -0.0298,2.02013 l 1.01582,-0.1654 c -0.19496,-0.56689 -0.19727,-0.93283 -0.0326,-1.36162 0.2709,-0.70542 0.72293,-0.84926 1.53901,-0.53586 l 3.74842,1.43951 -0.8977,2.33758 0.96822,0.37182 0.93489,-2.43439 c 0.0841,0.11165 0.22562,0.19774 0.50226,0.30398 l 1.30019,0.49931 0.43557,-1.1342 -1.30019,-0.49932 c -0.40112,-0.15404 -0.49695,-0.31781 -0.35884,-0.67744 l 0.26028,-0.67776 -0.96823,-0.37183 -0.44088,1.14804 -3.85907,-1.482 c -1.31403,-0.50463 -2.32333,-0.0669 -2.81733,1.21945 z"
           style="fill:#ffffff"
           id="path43466" />
        <path
           d="m 192.88612,150.14124 c -0.44519,0.92033 -0.40592,1.89395 0.11563,2.75523 -0.49308,-0.2056 -0.77188,-0.2417 -1.20813,-0.15646 l -0.54842,1.13374 c 0.66126,-0.10807 1.08635,-0.0341 1.76659,0.29493 l 2.96107,1.43235 c 1.32048,0.63875 2.56596,0.10554 3.31439,-1.44169 0.54197,-1.1204 0.62702,-2.21494 0.24916,-3.23714 l -1.00974,0.31806 c 0.27588,0.82474 0.22693,1.64047 -0.13438,2.38741 -0.44519,0.92033 -1.16924,1.2943 -1.84948,0.96524 -0.4535,-0.21936 -0.5241,-0.54978 -0.26949,-1.34833 l 0.35009,-1.09801 c 0.55394,-1.7236 0.30815,-2.78067 -0.77224,-3.30328 -1.20043,-0.58068 -2.27469,-0.12923 -2.96505,1.29795 z m 0.84936,0.59191 c 0.40648,-0.84031 0.97952,-1.10626 1.63309,-0.79011 0.60022,0.29034 0.68763,0.89223 0.34399,1.9769 l -0.34363,1.08467 c -0.13375,0.41262 -0.15652,0.69787 -0.10658,0.96891 l -0.60022,-0.29034 c -1.10707,-0.53552 -1.49443,-1.77628 -0.92665,-2.95003 z"
           style="fill:#ffffff"
           id="path43468" />
        <path
           d="m 189.4139,157.05535 8.86889,5.08559 0.60438,-1.05399 -8.86889,-5.08559 z"
           style="fill:#ffffff"
           id="path43470" />
        <path
           d="m 183.32776,175.36497 3.58226,-4.28598 3.39922,2.8411 0.79817,-0.95496 -7.84437,-6.5564 -0.79817,0.95497 3.56976,2.98363 -3.58226,4.28599 -3.56976,-2.98364 -0.79817,0.95497 7.84437,6.55639 0.79817,-0.95496 z"
           style="fill:#ffffff"
           id="path43472" />
        <path
           d="m 173.81129,176.64348 c -0.76221,0.72506 -1.04524,1.5669 -0.82815,2.52602 l -0.76591,-0.80515 -0.86956,0.82719 4.97332,5.22809 0.88029,-0.8374 -2.86961,-3.01662 c -0.85782,-0.90176 -0.83717,-2.1484 0.0539,-2.996 0.83735,-0.79655 1.82031,-0.70912 2.75983,0.27853 l 2.89004,3.03808 0.8803,-0.83739 -2.96153,-3.11324 c -1.31737,-1.38485 -2.90833,-1.46651 -4.14288,-0.29211 z"
           style="fill:#ffffff"
           id="path43474" />
        <path
           d="m 166.77816,192.09236 c 0.90864,-0.66513 1.33717,-1.58478 1.22176,-2.6204 0.84237,0.44838 1.9162,0.36009 2.75951,-0.29396 0.78032,-0.58957 1.10915,-1.34442 1.02789,-2.25814 l 0.63013,0.86082 0.96841,-0.7089 -4.26214,-5.82245 -0.98037,0.71765 2.46802,3.37152 c 0.7264,0.99233 0.61465,2.19423 -0.28203,2.85062 -0.88473,0.64763 -1.95746,0.38624 -2.70136,-0.63 l -2.48553,-3.39543 -0.98037,0.71765 2.46802,3.37152 c 0.73516,1.00429 0.61465,2.19423 -0.28203,2.85062 -0.90863,0.66514 -1.93995,0.41015 -2.70136,-0.63 l -2.48552,-3.39543 -0.98037,0.71765 2.54678,3.47913 c 1.11149,1.51838 2.67565,1.824 4.05056,0.81753 z"
           style="fill:#ffffff"
           id="path43476" />
        <path
           d="m 155.95934,189.97674 c -0.89331,0.49719 -1.42082,1.31647 -1.48912,2.32103 -0.2853,-0.45166 -0.49268,-0.64146 -0.89865,-0.82247 l -1.10045,0.61249 c 0.60322,0.29167 0.90855,0.59652 1.27604,1.25679 l 1.59969,2.87412 c 0.71337,1.28171 2.03902,1.5613 3.54081,0.72543 1.08751,-0.60529 1.78626,-1.45204 2.06462,-2.5057 l -1.00907,-0.32013 c -0.24832,0.83345 -0.75727,1.47282 -1.48227,1.87634 -0.89331,0.4972 -1.70075,0.38702 -2.06824,-0.27325 -0.245,-0.44018 -0.11284,-0.75114 0.55452,-1.25823 l 0.91761,-0.69726 c 1.44403,-1.09199 1.85051,-2.09826 1.26685,-3.14692 -0.64852,-1.16518 -1.78707,-1.41326 -3.17234,-0.64224 z m 0.35479,0.97257 c 0.81563,-0.45397 1.43742,-0.3422 1.7905,0.29218 0.32426,0.58259 0.0498,1.12535 -0.85486,1.8154 l -0.90467,0.69005 c -0.34662,0.26076 -0.52922,0.48109 -0.64415,0.73158 l -0.32426,-0.58259 c -0.59808,-1.07456 -0.20185,-2.31252 0.93744,-2.94662 z"
           style="fill:#ffffff"
           id="path43478" />
        <path
           d="m 149.15149,193.65608 1.66308,3.83307 c 0.50718,1.16895 0.0473,2.30526 -1.13527,2.81834 -1.0874,0.47179 -1.94725,0.0534 -2.49572,-1.21064 l -1.67487,-3.86026 -1.11458,0.48359 1.71615,3.9554 c 0.77257,1.78061 2.15276,2.39313 3.77026,1.69133 0.96506,-0.41872 1.55342,-1.11007 1.74377,-2.04868 l 0.41282,0.95147 1.10099,-0.47769 -2.87205,-6.61952 z"
           style="fill:#ffffff"
           id="path43480" />
        <path
           d="m 143.83923,204.87745 c -0.43399,0.1504 -0.63955,0.59798 -0.48914,1.03198 0.1504,0.43399 0.58398,0.6444 1.01798,0.494 0.43399,-0.1504 0.6444,-0.58399 0.494,-1.01798 -0.15041,-0.434 -0.58884,-0.65841 -1.02284,-0.508 z m -3.34432,-7.79499 2.36279,6.81792 1.14798,-0.39784 -2.36278,-6.81792 z"
           style="fill:#ffffff"
           id="path43482" />
        <path
           d="m 135.24707,198.52761 c -1.68658,0.46068 -2.56462,1.576 -2.22106,2.83379 0.28891,1.05769 1.10123,1.38875 2.95562,1.37373 l 0.29109,-0.003 c 1.36188,-0.0187 1.79597,0.10846 1.94433,0.6516 0.17178,0.6289 -0.26986,1.14887 -1.19891,1.40264 -0.829,0.22644 -1.48661,0.0681 -2.25347,-0.3214 l -0.48564,0.97742 c 0.93454,0.49735 1.83256,0.63605 2.97601,0.32372 1.62941,-0.44507 2.45159,-1.4837 2.11584,-2.7129 -0.30061,-1.10057 -1.16362,-1.44851 -3.04661,-1.42568 l -0.29109,0.003 c -1.39437,0.0122 -1.71669,-0.0994 -1.87285,-0.67112 -0.17959,-0.65748 0.28414,-1.15277 1.35613,-1.44558 0.90046,-0.24596 1.65813,-0.115 2.4588,0.34211 l 0.48564,-0.97742 c -0.97875,-0.54671 -1.98462,-0.68667 -3.21383,-0.35091 z"
           style="fill:#ffffff"
           id="path43484" />
        <path
           d="m 127.66579,200.24389 c -0.68424,0.12948 -1.24532,0.43169 -1.73398,1.03687 l 0.67483,0.77708 c 0.37968,-0.46392 0.68973,-0.65831 1.14104,-0.74371 0.74248,-0.1405 1.10251,0.16836 1.26505,1.0273 l 0.74658,3.94531 -2.46035,0.46558 0.19284,1.01908 2.56227,-0.48486 c -0.0508,0.13024 -0.0496,0.29589 0.006,0.58706 l 0.25896,1.36848 1.19378,-0.2259 -0.25896,-1.36848 c -0.0799,-0.4222 0.009,-0.58982 0.38754,-0.66145 l 0.71336,-0.13499 -0.19284,-1.01908 -1.20834,0.22866 -0.76862,-4.06178 c -0.26172,-1.38304 -1.16476,-2.01138 -2.51869,-1.75517 z"
           style="fill:#ffffff"
           id="path43486" />
        <path
           d="m 111.97141,205.52145 0.0298,1.12567 4.28052,-0.11349 -0.0298,-1.12567 z"
           style="fill:#ffffff"
           id="path43488" />
        <path
           d="m 93.257694,206.56492 0.579285,-0.71564 2.352483,1.9234 0.355427,-2.5805 0.922299,0.14274 -0.434073,2.56832 2.81779,-1.13058 0.343015,0.85838 -2.953038,1.0584 2.494964,1.90153 -0.586435,0.71454 -2.352482,-1.9234 -0.354321,2.57334 -0.922299,-0.14273 0.447265,-2.55896 -2.829876,1.11407 -0.335864,-0.85727 2.943674,-1.04522 z"
           style="fill:none"
           id="path43490" />
        <path
           d="m 78.635145,199.56363 -0.371693,1.06296 4.042031,1.41341 0.371693,-1.06296 z"
           style="fill:#ffffff"
           id="path43492" />
        <path
           d="m 68.374283,190.88599 -1.508404,-0.91299 -6.431925,6.04829 c -0.07906,0.0734 -0.150441,0.1341 -0.23717,0.22016 l 0.08506,-0.31222 2.489791,-8.43433 -1.508404,-0.91299 -7.854274,7.19644 1.077432,0.65213 6.633069,-6.1517 c 0.07906,-0.0734 0.165785,-0.15944 0.30355,-0.30121 l -0.126091,0.40863 -2.526151,8.63747 1.356296,0.82092 6.607717,-6.16704 c 0.07906,-0.0734 0.18113,-0.1848 0.303551,-0.30121 l -0.113415,0.41629 -2.513476,8.64515 1.102783,0.66748 z"
           style="fill:#ffffff"
           id="path43494" />
        <path
           d="m 50.274261,182.90719 c -1.315654,1.64188 -1.229266,3.57181 0.389483,4.86893 1.572499,1.26006 3.794167,0.95177 5.119086,-0.70167 1.38051,-1.72281 1.116166,-3.92825 -0.618208,-5.31802 -0.867187,-0.69489 -1.850378,-1.00806 -2.829278,-0.90009 l 0.01999,1.04131 c 0.812278,-0.0896 1.490099,0.13077 2.149161,0.65889 1.156249,0.92651 1.333295,2.3405 0.466888,3.5639 l -4.416873,-3.53929 c -0.08568,0.0832 -0.159805,0.17573 -0.280252,0.32604 z m 4.078732,3.91389 c -0.935479,0.78832 -2.136515,0.88918 -3.03839,0.16649 -0.948124,-0.75974 -1.093007,-1.88214 -0.418796,-2.93677 z"
           style="fill:#ffffff"
           id="path43496" />
        <path
           d="m 48.160706,175.46852 c -1.454556,-1.43704 -3.643762,-1.35044 -5.164109,0.18844 -1.520347,1.53888 -1.570008,3.71843 -0.115452,5.15547 0.758899,0.74976 1.808355,1.03677 2.886006,0.78926 l -3.040694,3.07776 0.864301,0.85389 7.185201,-7.27278 -0.853761,-0.84348 -0.853893,0.86431 c 0.182109,-1.06978 -0.12762,-2.04228 -0.907599,-2.81287 z m -0.633944,0.85249 c 1.001324,0.98927 0.927029,2.5613 -0.155958,3.65748 -1.072573,1.08565 -2.643585,1.17898 -3.64491,0.18972 -1.001324,-0.98927 -0.927029,-2.5613 0.145545,-3.64694 1.082986,-1.09619 2.653998,-1.18952 3.655323,-0.20026 z"
           style="fill:#ffffff"
           id="path43498" />
        <path
           d="m 36.898207,162.06372 c -1.844656,-2.79467 -4.795749,-3.58078 -7.404935,-1.85856 -2.584454,1.7059 -2.988453,4.67107 -1.127474,7.49048 l 1.828331,2.76994 8.532408,-5.63191 z m -6.437535,6.73464 -1.167193,-1.76831 c -1.436546,-2.17638 -1.126251,-4.42283 0.901742,-5.76143 2.052724,-1.35492 4.30611,-0.76515 5.726332,1.3865 l 1.167193,1.76831 z"
           style="fill:#ffffff"
           id="path43500" />
        <path
           d="m 26.285667,151.07301 c -1.875873,0.95278 -2.593451,2.74643 -1.654087,4.59588 0.912525,1.79661 3.063479,2.43242 4.952563,1.47293 1.968345,-0.99975 2.637492,-3.11779 1.63103,-5.09934 -0.503231,-0.99078 -1.269624,-1.68171 -2.205869,-1.98724 l -0.411422,0.95679 c 0.776885,0.25353 1.3034,0.73393 1.685855,1.48692 0.670975,1.32104 0.248852,2.6821 -1.045137,3.43905 l -2.563122,-5.04636 c -0.112393,0.0405 -0.218076,0.0941 -0.389811,0.18137 z m 2.10055,5.24807 c -1.177396,0.33213 -2.313052,-0.0715 -2.836412,-1.10195 -0.550199,-1.08325 -0.219085,-2.16544 0.830199,-2.84795 z"
           style="fill:#ffffff"
           id="path43502" />
        <path
           d="m 27.519888,144.04002 -7.761705,-0.0132 0.47288,1.19919 5.720574,-0.0738 c 0.253152,-0.004 0.398947,0.002 0.665882,-0.008 -0.201711,0.1751 -0.295674,0.25994 -0.49195,0.44882 l -4.209532,3.90569 0.478316,1.21297 5.66364,-5.3073 z"
           style="fill:#ffffff"
           id="path43504" />
        <path
           d="m 20.463002,134.46024 c -2.022147,0.58105 -3.06581,2.20673 -2.492945,4.2004 0.556498,1.9367 2.548507,2.9676 4.584894,2.38246 2.12183,-0.60969 3.179247,-2.56307 2.565462,-4.69914 -0.306892,-1.06803 -0.928877,-1.89137 -1.790498,-2.36835 l -0.58485,0.86178 c 0.714962,0.3958 1.141186,0.96706 1.374424,1.77876 0.409189,1.42405 -0.262582,2.6808 -1.676318,3.17952 l -1.563104,-5.43986 c -0.118015,0.0185 -0.231939,0.0512 -0.417065,0.10443 z m 1.070744,5.5505 c -1.218949,0.1036 -2.257837,-0.50744 -2.577004,-1.6182 -0.335536,-1.16772 0.194155,-2.16782 1.353527,-2.6397 z"
           style="fill:#ffffff"
           id="path43506" />
        <path
           d="m 23.370655,129.75435 -10.006815,2.09382 0.248831,1.18922 10.006815,-2.09382 z"
           style="fill:#ffffff"
           id="path43508" />
        <path
           d="m 22.492195,123.54476 c -0.283555,-2.17446 -2.144957,-3.50066 -4.216572,-3.23051 -2.071615,0.27014 -3.515983,2.02742 -3.232427,4.20188 0.285471,2.18915 2.132181,3.51726 4.203796,3.24712 2.071615,-0.27015 3.530675,-2.02934 3.245203,-4.21849 z m -1.043153,0.13603 c 0.189675,1.45454 -0.788994,2.65799 -2.361071,2.86299 -1.557385,0.20309 -2.811946,-0.70914 -3.001621,-2.16368 -0.18776,-1.43985 0.788993,-2.658 2.346378,-2.86108 1.572077,-0.20501 2.828554,0.72192 3.016314,2.16177 z"
           style="fill:#ffffff"
           id="path43510" />
        <path
           d="m 24.47491,116.0557 -4.029099,0.0917 c 0.874947,-0.62756 1.328391,-1.54193 1.303439,-2.63809 -0.04653,-2.04417 -1.680376,-3.50385 -3.843054,-3.45463 -2.162678,0.0492 -3.713599,1.58141 -3.667067,3.62559 0.02428,1.06652 0.57912,2.00241 1.526155,2.58849 l -1.318345,0.03 0.02731,1.19984 10.028308,-0.22827 z m -3.774001,-2.3743 c 0.03203,1.40722 -1.114244,2.48558 -2.654782,2.52064 -1.525725,0.0347 -2.719881,-0.99034 -2.751913,-2.39757 -0.03203,-1.40722 1.114243,-2.48557 2.639968,-2.5203 1.540538,-0.0351 2.734694,0.99001 2.766727,2.39723 z"
           style="fill:#ffffff"
           id="path43512" />
        <path
           d="m 18.359665,100.77143 c -2.097207,-0.16858 -3.646672,0.98521 -3.812876,3.05288 -0.161456,2.0086 1.339675,3.67517 3.451651,3.84493 2.20059,0.17689 3.87837,-1.27874 4.056446,-3.4941 0.08904,-1.10768 -0.203022,-2.09735 -0.841371,-2.84729 l -0.850952,0.6005 c 0.529693,0.62229 0.727344,1.30708 0.659676,2.14892 -0.118718,1.4769 -1.19016,2.41643 -2.688959,2.38514 l 0.453501,-5.64179 c -0.116965,-0.0243 -0.235118,-0.0338 -0.427116,-0.0492 z m -0.953274,5.57188 c -1.177299,-0.33247 -1.934323,-1.27033 -1.841724,-2.42231 0.09735,-1.21107 0.945403,-1.96044 2.196689,-1.99364 z"
           style="fill:#ffffff"
           id="path43514" />
        <path
           d="m 22.736665,97.391562 -4.034628,-0.667115 c -0.97942,-0.161944 -1.966902,-0.910919 -1.72036,-2.401977 0.03867,-0.233891 0.113834,-0.506803 0.203729,-0.687172 l -1.140221,-0.188532 c -0.07044,0.153549 -0.1189,0.355787 -0.167241,0.648151 -0.188533,1.140221 0.297211,1.926378 0.962745,2.351797 l -1.22793,-0.203035 -0.193367,1.169458 7.119073,1.177119 z"
           style="fill:#ffffff"
           id="path43516" />
        <path
           d="m 26.640558,72.228774 -1.031014,-0.452816 -1.721889,3.920567 1.031014,0.452816 z"
           style="fill:#ffffff"
           id="path43518" />
        <path
           d="m 33.70759,54.861447 0.398796,0.829867 -2.745279,1.302728 2.179984,1.425822 -0.523794,0.772431 -2.135318,-1.491688 -0.184413,3.030537 -0.922588,-0.05744 0.307535,-3.121871 -2.786499,1.44086 -0.394735,-0.835855 2.745278,-1.302728 -2.173995,-1.421762 0.523793,-0.77243 2.12121,1.499603 0.204509,-3.034392 0.918528,0.06342 -0.31545,3.107762 z"
           style="fill:none"
           id="path43520" />
        <path
           d="m 46.27635,44.63669 -0.803098,-0.789345 -3.001588,3.053885 0.803098,0.789345 z"
           style="fill:#ffffff"
           id="path43522" />
        <path
           d="m 58.935502,39.004754 c 1.565255,-1.122547 1.853136,-2.805889 0.713319,-4.395225 l -4.205235,-5.863685 -1.011396,0.725339 4.187965,5.839604 c 0.777148,1.083638 0.665254,2.020841 -0.358181,2.754815 -0.903032,0.647623 -1.564402,0.666107 -2.619333,0.237514 l -0.288852,1.173511 c 1.210118,0.517863 2.377671,0.391625 3.581713,-0.471873 z"
           style="fill:#ffffff"
           id="path43524" />
        <path
           d="m 66.401256,34.141691 c 0.911334,-0.525493 1.384389,-1.277163 1.398927,-2.260442 l 0.555099,0.962677 1.039691,-0.599507 -3.604443,-6.250983 -1.052527,0.606908 2.079771,3.60683 c 0.621711,1.078198 0.308485,2.285018 -0.756878,2.899328 -1.001184,0.577303 -1.936021,0.261176 -2.616942,-0.919708 l -2.094574,-3.632501 -1.052527,0.606908 2.146383,3.722351 c 0.95477,1.655805 2.481915,2.109291 3.95802,1.258139 z"
           style="fill:#ffffff"
           id="path43526" />
        <path
           d="m 73.194831,30.376254 -1.702039,-3.815931 c -0.519062,-1.163724 -0.07076,-2.304662 1.106498,-2.829759 1.082534,-0.482848 1.946608,-0.07329 2.507919,1.185155 l 1.71411,3.842995 1.109597,-0.49492 -1.756359,-3.937716 c -0.790664,-1.772649 -2.177019,-2.371068 -3.787288,-1.652832 -0.960749,0.428528 -1.542029,1.125841 -1.722815,2.066336 l -0.422491,-0.947217 -1.096066,0.488884 2.939337,6.589924 z"
           style="fill:#ffffff"
           id="path43528" />
        <path
           d="m 78.392316,19.101319 c 0.432437,-0.154826 0.633413,-0.604486 0.478587,-1.036923 -0.154825,-0.432437 -0.590536,-0.638408 -1.022973,-0.483582 -0.432437,0.154825 -0.638407,0.590536 -0.483582,1.022973 0.154825,0.432437 0.595531,0.652357 1.027968,0.497532 z m 3.423715,7.760444 -2.432256,-6.793448 -1.143866,0.409538 2.432256,6.793447 z"
           style="fill:#ffffff"
           id="path43530" />
        <path
           d="m 87.846806,25.141122 c 2.115278,-0.578174 3.174538,-2.603408 2.62371,-4.618639 -0.550827,-2.015231 -2.489068,-3.205791 -4.604346,-2.627618 -2.129571,0.582081 -3.192738,2.593023 -2.64191,4.608254 0.550828,2.015231 2.492975,3.220083 4.622546,2.638003 z M 87.569439,24.12636 c -1.41495,0.386751 -2.740904,-0.418199 -3.158908,-1.947487 -0.414098,-1.514997 0.318056,-2.882494 1.733006,-3.269246 1.400657,-0.382845 2.740904,0.418199 3.155001,1.933195 0.418004,1.529289 -0.328442,2.900693 -1.729099,3.283538 z"
           style="fill:#ffffff"
           id="path43532" />
        <path
           d="m 95.093293,23.330705 -0.72846,-4.024004 c -0.176836,-0.976842 0.196461,-2.158676 1.683594,-2.42789 0.233275,-0.04223 0.515569,-0.06322 0.715663,-0.03921 l -0.205869,-1.137219 c -0.168295,-0.01471 -0.375051,0.0077 -0.666646,0.06045 -1.137218,0.205869 -1.714252,0.927687 -1.891099,1.69752 l -0.221705,-1.224697 -1.166378,0.211148 1.285362,7.100327 z"
           style="fill:#ffffff"
           id="path43534" />
        <path
           d="m 113.83831,18.103511 c -0.13344,-0.192554 -0.26689,-0.399925 -0.44477,-0.562826 1.4074,-0.400711 2.26628,-1.438284 2.2656,-2.89032 -8.6e-4,-1.837271 -1.36457,-3.0516 -3.46854,-3.050612 l -4.05977,0.0019 0.005,10.223522 1.2446,-5.85e-4 -0.002,-4.104225 2.10397,-9.88e-4 c 0.56304,-2.64e-4 0.66677,0.02932 0.96332,0.488499 l 2.35755,3.614168 1.46685,-6.88e-4 z m -4.46235,-5.361551 2.69664,-0.0013 c 1.48167,-6.95e-4 2.31173,0.6953 2.31232,1.939902 5.7e-4,1.21497 -0.82885,1.896927 -2.31052,1.897623 l -2.69663,0.0013 z"
           style="fill:#ffffff"
           id="path43536" />
        <path
           d="m 124.89233,18.888695 c 0.21905,-2.092537 -0.89709,-3.669346 -2.96015,-3.885309 -2.00412,-0.209793 -3.70637,1.250757 -3.92696,3.358031 -0.22985,2.195691 1.18495,3.908047 3.39538,4.139436 1.10521,0.115695 2.10163,-0.152441 2.86673,-0.77254 l -0.57983,-0.86517 c -0.63487,0.51455 -1.32422,0.695648 -2.16418,0.60772 -1.47362,-0.154259 -2.38706,-1.248022 -2.31968,-2.745632 l 5.62922,0.589271 c 0.0271,-0.116347 0.0394,-0.234236 0.0595,-0.425807 z m -5.5473,-1.087215 c 0.36073,-1.168949 1.31655,-1.903162 2.46597,-1.78284 1.20837,0.126493 1.9371,0.992353 1.94015,2.244075 z"
           style="fill:#ffffff"
           id="path43538" />
        <path
           d="m 129.32975,23.723254 c 1.7146,0.341965 2.99864,-0.263127 3.25366,-1.541813 0.21446,-1.075259 -0.36415,-1.734564 -2.02961,-2.550201 l -0.26159,-0.127715 c -1.22656,-0.592125 -1.55798,-0.899962 -1.44786,-1.452122 0.12751,-0.639343 0.75502,-0.907012 1.6995,-0.718641 0.84278,0.168085 1.36024,0.603677 1.87203,1.294982 l 0.87139,-0.657176 c -0.61359,-0.862692 -1.35485,-1.388244 -2.51729,-1.620086 -1.65648,-0.330373 -2.85627,0.231087 -3.1055,1.480712 -0.22315,1.11885 0.39325,1.815911 2.08777,2.637344 l 0.26159,0.127715 c 1.25273,0.612452 1.49113,0.856411 1.37521,1.437632 -0.13331,0.668404 -0.76955,0.904114 -1.85934,0.686762 -0.91542,-0.182575 -1.5346,-0.638453 -2.04643,-1.405308 l -0.87139,0.657176 c 0.63106,0.92661 1.46823,1.501509 2.71786,1.750739 z"
           style="fill:#ffffff"
           id="path43540" />
        <path
           d="m 141.75532,22.905838 c 0.60153,-2.016151 -0.20439,-3.771882 -2.19214,-4.364934 -1.93096,-0.576107 -3.87355,0.545147 -4.47931,2.575496 -0.63117,2.115539 0.44325,4.059616 2.57299,4.695028 1.06486,0.317707 2.09365,0.238096 2.96007,-0.230126 l -0.41018,-0.957329 c -0.71894,0.388524 -1.42987,0.439271 -2.23917,0.197814 -1.41982,-0.423608 -2.11569,-1.66718 -1.77303,-3.12662 l 5.42373,1.618184 c 0.0481,-0.10935 0.082,-0.222936 0.13704,-0.407513 z m -5.2513,-2.092452 c 0.57029,-1.082281 1.64521,-1.627454 2.75267,-1.297039 1.16426,0.347359 1.72065,1.33285 1.4926,2.563628 z"
           style="fill:#ffffff"
           id="path43542" />
        <path
           d="m 144.65985,28.250014 c 0.94691,0.385441 1.91603,0.284012 2.7422,-0.291532 -0.17365,0.505212 -0.19186,0.785749 -0.0789,1.215659 l 1.16649,0.474819 c -0.15012,-0.653002 -0.1035,-1.081944 0.18139,-1.781834 l 1.24012,-3.046581 c 0.55302,-1.358611 -0.0587,-2.567452 -1.65063,-3.215441 -1.15276,-0.469233 -2.25049,-0.484145 -3.24645,-0.0417 l 0.38197,0.987333 c 0.80541,-0.328041 1.62261,-0.331339 2.39112,-0.01852 0.94691,0.385441 1.36639,1.0841 1.0815,1.783991 -0.18993,0.466593 -0.51515,0.55817 -1.32835,0.355134 l -1.11814,-0.279173 c -1.75549,-0.442623 -2.79468,-0.129757 -3.24716,0.981833 -0.50275,1.2351 0.0164,2.278294 1.48485,2.876008 z m 0.5364,-0.885463 c -0.86457,-0.351925 -1.16662,-0.906797 -0.8929,-1.57924 0.25138,-0.61755 0.84645,-0.743259 1.95087,-0.469672 l 1.10442,0.273588 c 0.42032,0.107103 0.70645,0.11159 0.97374,0.04443 l -0.25137,0.61755 c -0.46365,1.139037 -1.67711,1.604926 -2.88476,1.113349 z"
           style="fill:#ffffff"
           id="path43544" />
        <path
           d="m 151.78087,31.27528 1.83902,-3.652569 c 0.44643,-0.886674 1.45563,-1.606123 2.80549,-0.926484 0.21174,0.10661 0.44986,0.259678 0.59525,0.399234 l 0.51973,-1.032247 c -0.12559,-0.112997 -0.3042,-0.219515 -0.56888,-0.352777 -1.03225,-0.519725 -1.92743,-0.2903 -2.53184,0.218237 l 0.55971,-1.111651 -1.05872,-0.533051 -3.24494,6.444931 z"
           style="fill:#ffffff"
           id="path43546" />
        <path
           d="m 158.59899,35.23471 c 0.92522,0.56023 1.92824,0.734533 2.87963,0.479187 l -0.20663,-1.060458 c -0.78092,0.202672 -1.41836,0.11116 -2.12812,-0.318606 -1.21674,-0.736741 -1.48766,-2.234522 -0.67418,-3.578 0.81349,-1.343478 2.2586,-1.784868 3.47533,-1.048127 0.68441,0.414417 1.04325,0.908833 1.23325,1.682084 l 1.06848,-0.305694 c -0.20465,-0.920692 -0.83162,-1.716036 -1.75685,-2.276267 -1.79975,-1.089762 -3.95171,-0.539421 -5.07217,1.31103 -1.12814,1.863125 -0.6185,4.025088 1.18126,5.114851 z"
           style="fill:#ffffff"
           id="path43548" />
        <path
           d="m 163.79302,38.478695 2.4981,-3.349296 c 0.76183,-1.021416 1.97636,-1.187626 3.00966,-0.416937 0.83138,0.620095 1.12122,1.520184 0.19108,2.767262 l -2.51582,3.373049 0.97391,0.726397 2.57782,-3.456187 c 1.20476,-1.615263 0.94596,-3.102178 -0.40801,-4.112047 -0.89077,-0.664388 -1.76527,-0.780599 -2.63274,-0.484923 l 2.41837,-3.242402 -0.97391,-0.726397 -6.11237,8.195083 z"
           style="fill:#ffffff"
           id="path43550" />
        <path
           d="m 177.4792,44.966113 c 1.42117,-1.551441 1.46238,-3.482863 -0.0672,-4.884017 -1.48589,-1.361122 -3.72306,-1.200159 -5.15424,0.362208 -1.49123,1.62792 -1.37306,3.845994 0.26579,5.347231 0.81942,0.750619 1.7798,1.128014 2.76369,1.084896 l 0.0488,-1.040355 c -0.81642,0.03578 -1.47821,-0.228857 -2.10098,-0.799327 -1.09256,-1.000825 -1.17588,-2.423412 -0.2306,-3.586951 l 4.1736,3.82315 c 0.091,-0.0774 0.17105,-0.164802 0.30116,-0.306835 z m -3.81146,-4.174605 c 0.98548,-0.724845 2.19055,-0.746194 3.04275,0.03445 0.8959,0.820676 0.96638,1.950188 0.22401,2.958016 z"
           style="fill:#ffffff"
           id="path43552" />
        <path
           d="m 177.45851,50.496027 3.00359,-2.775197 c 0.72913,-0.673689 1.92659,-0.993344 2.95221,0.116678 0.16088,0.174121 0.33016,0.401 0.41735,0.582694 l 0.84884,-0.784295 c -0.078,-0.149874 -0.20785,-0.312285 -0.40895,-0.529936 -0.7843,-0.84884 -1.70307,-0.948064 -2.44747,-0.683899 l 0.91413,-0.844626 -0.8044,-0.870605 -5.29981,4.896816 z"
           style="fill:#ffffff"
           id="path43554" />
        <path
           d="m 190.80454,61.761992 0.93738,-0.623978 -2.37276,-3.564515 -0.93738,0.623978 z"
           style="fill:#ffffff"
           id="path43556" />
        <path
           d="m 201.62083,77.078924 -0.9139,-0.111845 0.38391,-3.014344 -2.37652,1.066512 -0.36787,-0.857718 2.40789,-0.993373 -2.45235,-1.790011 0.54603,-0.745873 2.46284,1.942954 0.28983,-3.123564 0.91675,0.118494 -0.38391,3.014344 2.36987,-1.06366 0.36787,0.857717 -2.40694,0.977224 2.44475,1.809013 -0.54887,0.739223 -2.44669,-1.942008 z"
           style="fill:none"
           id="path43558" />
        <path
           d="m 203.43224,93.190879 1.09841,-0.248076 -0.94335,-4.176823 -1.0984,0.248076 z"
           style="fill:#ffffff"
           id="path43560" />
        <path
           sodipodi:type="star"
           style="fill:none"
           id="path503"
           inkscape:flatsided="false"
           sodipodi:sides="5"
           sodipodi:cx="401.84396"
           sodipodi:cy="42.024521"
           sodipodi:r1="24.798103"
           sodipodi:r2="12.399052"
           sodipodi:arg1="0.80667155"
           sodipodi:arg2="1.4349901"
           inkscape:rounded="0"
           inkscape:randomized="0"
           d="m 419.0019,59.928459 -15.47924,-5.619051 -13.40426,9.565905 0.56069,-16.458017 -13.23986,-9.792181 15.82576,-4.552563 5.22158,-15.617806 9.22017,13.644379 16.46698,0.139846 -10.12739,12.985253 z"
           transform="scale(0.26458333)"
           inkscape:transform-center-x="0.27450445"
           inkscape:transform-center-y="-0.35969883" />
        <path
           sodipodi:type="star"
           style="fill:#ffd42a"
           id="path555"
           inkscape:flatsided="false"
           sodipodi:sides="5"
           sodipodi:cx="407.56327"
           sodipodi:cy="50.727825"
           sodipodi:r1="5.27458"
           sodipodi:r2="2.63729"
           sodipodi:arg1="0.40389214"
           sodipodi:arg2="1.0322107"
           inkscape:rounded="0"
           inkscape:randomized="0"
           d="m 412.41344,52.800737 -3.49745,0.19103 -1.8254,2.989417 -1.26245,-3.267244 -3.40718,-0.812272 2.71721,-2.210299 -0.28036,-3.491428 2.94179,1.901205 3.23391,-1.34555 -0.8991,3.385308 z"
           transform="scale(0.26458333)"
           inkscape:transform-center-x="0.038647059"
           inkscape:transform-center-y="0.095974123" />
        <path
           sodipodi:type="star"
           style="fill:#ffd42a"
           id="path564"
           inkscape:flatsided="false"
           sodipodi:sides="5"
           sodipodi:cx="341.99573"
           sodipodi:cy="78.861226"
           sodipodi:r1="3.2350457"
           sodipodi:r2="1.6175228"
           sodipodi:arg1="0.74695557"
           sodipodi:arg2="1.3752741"
           inkscape:rounded="0"
           inkscape:randomized="0"
           d="m 344.36948,81.059145 -2.0595,-0.611213 -1.67107,1.35006 -0.0551,-2.147575 -1.80037,-1.172085 2.02543,-0.716061 0.55838,-2.074448 1.3069,1.705024 2.14547,-0.109994 -1.21772,1.769824 z"
           transform="scale(0.26458333)"
           inkscape:transform-center-x="0.051387834"
           inkscape:transform-center-y="-0.031306171" />
        <path
           sodipodi:type="star"
           style="fill:#ffd42a"
           id="path566"
           inkscape:flatsided="false"
           sodipodi:sides="5"
           sodipodi:cx="208.09869"
           sodipodi:cy="115.34663"
           sodipodi:r1="1.9932081"
           sodipodi:r2="0.99660403"
           sodipodi:arg1="0.72297935"
           sodipodi:arg2="1.3512979"
           inkscape:rounded="0"
           inkscape:randomized="0"
           d="m 209.59328,116.66538 -1.27759,-0.34606 -1.00935,0.85626 -0.0657,-1.322 -1.12626,-0.69535 1.23699,-0.47098 0.31329,-1.28601 0.83018,1.03091 1.31988,-0.0994 -0.72391,1.10811 z"
           transform="scale(0.26458333)"
           inkscape:transform-center-x="0.03548497"
           inkscape:transform-center-y="-0.015403869" />
        <path
           sodipodi:type="star"
           style="fill:#ffd42a"
           id="path568"
           inkscape:flatsided="false"
           sodipodi:sides="5"
           sodipodi:cx="126.76948"
           sodipodi:cy="220.79949"
           sodipodi:r1="12.70735"
           sodipodi:r2="6.3536749"
           sodipodi:arg1="0.50970538"
           sodipodi:arg2="1.1380239"
           inkscape:rounded="0"
           inkscape:randomized="0"
           d="m 137.86157,226.99966 -8.42743,-0.43227 -5.13373,6.69726 -2.19311,-8.14854 -7.95589,-2.8129 7.07202,-4.60381 0.21672,-8.43573 6.56386,5.30323 8.08983,-2.40067 -3.01533,7.88139 z"
           transform="scale(0.26458333)"
           inkscape:transform-center-x="0.20187313"
           inkscape:transform-center-y="0.12294512" />
        <path
           sodipodi:type="star"
           style="fill:#ffd42a"
           id="path570"
           inkscape:flatsided="false"
           sodipodi:sides="5"
           sodipodi:cx="368.37991"
           sodipodi:cy="776.06897"
           sodipodi:r1="10.521218"
           sodipodi:r2="5.2606091"
           sodipodi:arg1="0.54273279"
           sodipodi:arg2="1.1710513"
           inkscape:rounded="0"
           inkscape:randomized="0"
           d="m 377.38924,781.50295 -6.96198,-0.58812 -4.43133,5.40171 -1.59204,-6.80298 -6.50668,-2.54522 5.97804,-3.61636 0.40998,-6.97474 5.28668,4.56795 6.76006,-1.76541 -2.7107,6.43951 z"
           transform="scale(0.26458333)"
           inkscape:transform-center-x="0.19491769"
           inkscape:transform-center-y="0.073530356" />
        <path
           sodipodi:type="star"
           style="fill:#ffd42a"
           id="path572"
           inkscape:flatsided="false"
           sodipodi:sides="5"
           sodipodi:cx="770.61536"
           sodipodi:cy="425.96454"
           sodipodi:r1="5.1021957"
           sodipodi:r2="2.5510979"
           sodipodi:arg1="0.81986726"
           sodipodi:arg2="1.4481858"
           inkscape:rounded="0"
           inkscape:randomized="0"
           d="m 774.09668,429.69453 -3.16932,-1.19805 -2.78364,1.93162 0.16003,-3.38441 -2.69727,-2.05051 3.26822,-0.89363 1.11664,-3.1989 1.85984,2.83211 3.38739,0.0735 -2.11877,2.64399 z"
           transform="scale(0.26458333)"
           inkscape:transform-center-x="0.051022638"
           inkscape:transform-center-y="-0.079420018" />
        <path
           sodipodi:type="star"
           style="fill:#ffd42a"
           id="path574"
           inkscape:flatsided="false"
           sodipodi:sides="5"
           sodipodi:cx="774.84265"
           sodipodi:cy="490.36899"
           sodipodi:r1="4.7831821"
           sodipodi:r2="2.3915913"
           sodipodi:arg1="1.0838971"
           sodipodi:arg2="1.7122156"
           inkscape:rounded="0"
           inkscape:randomized="0"
           d="m 777.08064,494.59631 -2.57508,-1.85961 -2.99175,1.06706 0.97284,-3.0237 -1.93933,-2.51559 3.17634,-0.009 1.79317,-2.62177 0.99024,3.01804 3.04758,0.89524 -2.56433,1.8744 z"
           transform="scale(0.26458333)"
           inkscape:transform-center-x="-0.055119026"
           inkscape:transform-center-y="-0.067220725" />
        <path
           sodipodi:type="star"
           style="fill:#ffd42a"
           id="path576"
           inkscape:flatsided="false"
           sodipodi:sides="5"
           sodipodi:cx="746.24609"
           sodipodi:cy="539.35614"
           sodipodi:r1="4.9358754"
           sodipodi:r2="2.4679377"
           sodipodi:arg1="0.7140907"
           sodipodi:arg2="1.3424092"
           inkscape:rounded="0"
           inkscape:randomized="0"
           d="m 749.97608,542.5888 -3.17123,-0.82881 -2.48056,2.14252 -0.19173,-3.27213 -2.8042,-1.69708 3.05274,-1.19349 0.74748,-3.19137 2.07842,2.53451 3.26616,-0.27529 -1.7682,2.7599 z"
           transform="scale(0.26458333)"
           inkscape:transform-center-x="0.091371408"
           inkscape:transform-center-y="-0.03457366" />
        <path
           sodipodi:type="star"
           style="fill:#ffd42a"
           id="path578"
           inkscape:flatsided="false"
           sodipodi:sides="5"
           sodipodi:cx="740.27814"
           sodipodi:cy="586.85132"
           sodipodi:r1="4.3993473"
           sodipodi:r2="2.1996737"
           sodipodi:arg1="0.74541948"
           sodipodi:arg2="1.373738"
           inkscape:rounded="0"
           inkscape:randomized="0"
           d="m 743.51079,589.83531 -2.80199,-0.82689 -2.26966,1.83944 -0.0794,-2.92037 -2.45077,-1.59016 2.75289,-0.97801 0.755,-2.82221 1.78083,2.31594 2.91739,-0.15407 -1.65228,2.40933 z"
           transform="scale(0.26458333)"
           inkscape:transform-center-x="0.070425296"
           inkscape:transform-center-y="-0.042026255" />
        <path
           sodipodi:type="star"
           style="fill:#ffd42a"
           id="path580"
           inkscape:flatsided="false"
           sodipodi:sides="5"
           sodipodi:cx="677.86298"
           sodipodi:cy="655.23444"
           sodipodi:r1="4.2346263"
           sodipodi:r2="2.1173131"
           sodipodi:arg1="0.8685394"
           sodipodi:arg2="1.4968579"
           inkscape:rounded="0"
           inkscape:randomized="0"
           d="m 680.5983,658.46709 -2.57892,-1.12113 -2.38558,1.48887 0.26933,-2.79914 -2.15318,-1.80874 2.74536,-0.60884 1.05485,-2.60673 1.4274,2.42286 2.80512,0.19769 -1.86319,2.10625 z"
           transform="scale(0.26458333)"
           inkscape:transform-center-x="0.025578352"
           inkscape:transform-center-y="-0.082375334" />
        <path
           sodipodi:type="star"
           style="fill:#ffd42a"
           id="path582"
           inkscape:flatsided="false"
           sodipodi:sides="5"
           sodipodi:cx="713.42218"
           sodipodi:cy="645.03912"
           sodipodi:r1="3.7957189"
           sodipodi:r2="1.8978595"
           sodipodi:arg1="1.0191413"
           sodipodi:arg2="1.6474599"
           inkscape:rounded="0"
           inkscape:randomized="0"
           d="m 715.41151,648.27178 -2.13468,-1.34037 -2.31435,0.99862 0.61511,-2.4444 -1.66492,-1.89248 2.51485,-0.17035 1.28537,-2.16825 0.93914,2.33912 2.45932,0.55244 -1.93442,1.616 z"
           transform="scale(0.26458333)"
           inkscape:transform-center-x="-0.02376615"
           inkscape:transform-center-y="-0.073015838" />
        <path
           sodipodi:type="star"
           style="fill:#ffd42a"
           id="path584"
           inkscape:flatsided="false"
           sodipodi:sides="5"
           sodipodi:cx="579.88867"
           sodipodi:cy="730.58014"
           sodipodi:r1="3.3454564"
           sodipodi:r2="1.6727282"
           sodipodi:arg1="0.83798123"
           sodipodi:arg2="1.4662998"
           inkscape:rounded="0"
           inkscape:randomized="0"
           d="m 582.12666,733.0668 -2.06351,-0.82306 -1.84785,1.23328 0.14511,-2.21686 -1.74393,-1.37631 2.1532,-0.54704 0.77004,-2.08388 1.18564,1.87877 2.21984,0.0884 -1.42043,1.70818 z"
           transform="scale(0.26458333)"
           inkscape:transform-center-x="0.028532577"
           inkscape:transform-center-y="-0.056931608" />
        <path
           sodipodi:type="star"
           style="fill:#ffd42a"
           id="path586"
           inkscape:flatsided="false"
           sodipodi:sides="5"
           sodipodi:cx="604.50977"
           sodipodi:cy="733.67548"
           sodipodi:r1="4.0011353"
           sodipodi:r2="2.0005679"
           sodipodi:arg1="0.30720869"
           sodipodi:arg2="0.93552722"
           inkscape:rounded="0"
           inkscape:randomized="0"
           d="m 608.32357,734.88542 -2.62668,0.40034 -1.15931,2.39075 -1.19244,-2.37441 -2.63199,-0.36379 1.88971,-1.8678 -0.46734,-2.6156 2.36034,1.22005 2.34316,-1.25274 -0.43094,2.62184 z"
           transform="scale(0.26458333)"
           inkscape:transform-center-x="-0.0022717493"
           inkscape:transform-center-y="0.098923164" />
        <path
           sodipodi:type="star"
           style="fill:#ffd42a"
           id="path588"
           inkscape:flatsided="false"
           sodipodi:sides="5"
           sodipodi:cx="201.86063"
           sodipodi:cy="732.39062"
           sodipodi:r1="4.7600045"
           sodipodi:r2="2.3800023"
           sodipodi:arg1="0.54428056"
           sodipodi:arg2="1.1725991"
           inkscape:rounded="0"
           inkscape:randomized="0"
           d="m 205.93281,734.85537 -3.14932,-0.27095 -2.0086,2.44073 -0.71551,-3.07891 -2.94196,-1.15606 2.70711,-1.63193 0.19037,-3.15521 2.38859,2.07032 3.05962,-0.79396 -1.23088,2.91145 z"
           transform="scale(0.26458333)"
           inkscape:transform-center-x="0.088771269"
           inkscape:transform-center-y="0.032665101" />
        <path
           sodipodi:type="star"
           style="fill:#ffd42a"
           id="path590"
           inkscape:flatsided="false"
           sodipodi:sides="5"
           sodipodi:cx="252.72144"
           sodipodi:cy="718.00818"
           sodipodi:r1="5.3438597"
           sodipodi:r2="2.6719298"
           sodipodi:arg1="1.4485232"
           sodipodi:arg2="2.0768418"
           inkscape:rounded="0"
           inkscape:randomized="0"
           d="m 253.37322,723.31214 -1.94693,-2.96691 -3.54781,-0.0782 2.22007,-2.76847 -1.02201,-3.39832 3.319,1.25591 2.91618,-2.02213 -0.16881,3.54466 2.82431,2.14858 -3.42334,0.93481 z"
           transform="scale(0.26458333)"
           inkscape:transform-center-x="-0.053289447"
           inkscape:transform-center-y="0.083322574" />
        <path
           sodipodi:type="star"
           style="fill:#ffd42a"
           id="path592"
           inkscape:flatsided="false"
           sodipodi:sides="5"
           sodipodi:cx="100.95832"
           sodipodi:cy="615.19922"
           sodipodi:r1="4.5851712"
           sodipodi:r2="2.2925856"
           sodipodi:arg1="0.21866895"
           sodipodi:arg2="0.84698748"
           inkscape:rounded="0"
           inkscape:randomized="0"
           d="m 105.43431,616.19388 -2.95774,0.72315 -1.08108,2.84647 -1.601738,-2.58951 -3.041228,-0.14855 1.967804,-2.32355 -0.798507,-2.93829 2.817909,1.15348 2.54773,-1.66741 -0.22624,3.03644 z"
           transform="scale(0.26458333)"
           inkscape:transform-center-x="-0.035743364"
           inkscape:transform-center-y="0.081322357" />
        <path
           sodipodi:type="star"
           style="fill:#ffd42a"
           id="path599"
           inkscape:flatsided="false"
           sodipodi:sides="5"
           sodipodi:cx="132.29021"
           sodipodi:cy="624.39984"
           sodipodi:r1="2.8188219"
           sodipodi:r2="1.409411"
           sodipodi:arg1="0.84781697"
           sodipodi:arg2="1.4761355"
           inkscape:rounded="0"
           inkscape:randomized="0"
           d="m 134.1552,626.5135 -1.73178,-0.71056 -1.56711,1.02377 0.14063,-1.86659 -1.45792,-1.17405 1.81869,-0.44306 0.66606,-1.74937 0.98338,1.59277 1.86958,0.0929 -1.21093,1.42745 z"
           transform="scale(0.26458333)"
           inkscape:transform-center-x="0.021784257"
           inkscape:transform-center-y="-0.050184426" />
        <path
           sodipodi:type="star"
           style="fill:#ffd42a"
           id="path601"
           inkscape:flatsided="false"
           sodipodi:sides="5"
           sodipodi:cx="88.027695"
           sodipodi:cy="562.2334"
           sodipodi:r1="3.5863092"
           sodipodi:r2="1.7931546"
           sodipodi:arg1="0.98279372"
           sodipodi:arg2="1.6111123"
           inkscape:rounded="0"
           inkscape:randomized="0"
           d="m 90.017021,565.21739 -2.061599,-1.19229 -2.150934,1.02236 0.496867,-2.32913 -1.637004,-1.72973 2.368681,-0.2472 1.139209,-2.0914 0.967057,2.17637 2.341075,0.43717 -1.771006,1.59226 z"
           transform="scale(0.26458333)"
           inkscape:transform-center-x="-0.011817913"
           inkscape:transform-center-y="-0.079298218" />
        <path
           sodipodi:type="star"
           style="fill:#ffd42a"
           id="path603"
           inkscape:flatsided="false"
           sodipodi:sides="5"
           sodipodi:cx="91.757683"
           sodipodi:cy="543.83209"
           sodipodi:r1="3.1844761"
           sodipodi:r2="1.5922381"
           sodipodi:arg1="0.67474094"
           sodipodi:arg2="1.3030595"
           inkscape:rounded="0"
           inkscape:randomized="0"
           d="m 94.244341,545.82142 -2.065432,-0.45382 -1.544768,1.44418 -0.206649,-2.10458 -1.850855,-1.02289 1.937717,-0.84688 0.400877,-2.07636 1.404223,1.58118 2.09861,-0.26037 -1.069858,1.8241 z"
           transform="scale(0.26458333)"
           inkscape:transform-center-x="0.0688798"
           inkscape:transform-center-y="-0.01208425" />
        <path
           sodipodi:type="star"
           style="fill:#ffd42a"
           id="path611"
           inkscape:flatsided="false"
           sodipodi:sides="5"
           sodipodi:cx="88.214195"
           sodipodi:cy="443.30896"
           sodipodi:r1="1.8629202"
           sodipodi:r2="0.93146008"
           sodipodi:arg1="1.122073"
           sodipodi:arg2="1.7503915"
           inkscape:rounded="0"
           inkscape:randomized="0"
           d="m 89.022359,444.98745 -0.974552,-0.76201 -1.180218,0.37081 0.423567,-1.16233 -0.717373,-1.00786 1.23633,0.0437 0.736858,-0.99371 0.340527,1.18931 1.172776,0.39372 -1.025873,0.69138 z"
           transform="scale(0.26458333)"
           inkscape:transform-center-x="-0.027207706"
           inkscape:transform-center-y="-0.020435637" />
        <path
           sodipodi:type="star"
           style="fill:#ffd42a"
           id="path613"
           inkscape:flatsided="false"
           sodipodi:sides="5"
           sodipodi:cx="62.228619"
           sodipodi:cy="416.3909"
           sodipodi:r1="1.8907188"
           sodipodi:r2="0.94535941"
           sodipodi:arg1="0.80864979"
           sodipodi:arg2="1.4369683"
           inkscape:rounded="0"
           inkscape:randomized="0"
           d="m 63.534114,417.75856 -1.179357,-0.43075 -1.023442,0.72732 0.04523,-1.25475 -1.007988,-0.74859 1.207312,-0.34472 0.400471,-1.18998 0.700928,1.04169 1.255493,0.0131 -0.774115,0.98853 z"
           transform="scale(0.26458333)"
           inkscape:transform-center-x="0.020626524"
           inkscape:transform-center-y="-0.027727336" />
        <path
           sodipodi:type="star"
           style="fill:#ffd42a"
           id="path615"
           inkscape:flatsided="false"
           sodipodi:sides="5"
           sodipodi:cx="64.952713"
           sodipodi:cy="353.89719"
           sodipodi:r1="4.0915904"
           sodipodi:r2="2.0457952"
           sodipodi:arg1="1.2831934"
           sodipodi:arg2="1.911512"
           inkscape:rounded="0"
           inkscape:randomized="0"
           d="m 66.113311,357.82072 -1.844224,-1.99534 -2.689233,0.38804 1.327785,-2.37056 -1.200065,-2.4377 2.66484,0.53026 1.947552,-1.89462 0.319177,2.69827 2.403718,1.26676 -2.467579,1.13737 z"
           transform="scale(0.26458333)"
           inkscape:transform-center-x="-0.094891108"
           inkscape:transform-center-y="0.0088817235" />
        <path
           sodipodi:type="star"
           style="fill:#ffd42a"
           id="path617"
           inkscape:flatsided="false"
           sodipodi:sides="5"
           sodipodi:cx="77.894142"
           sodipodi:cy="369.7774"
           sodipodi:r1="1.9019277"
           sodipodi:r2="0.95096385"
           sodipodi:arg1="0.98279372"
           sodipodi:arg2="1.6111123"
           inkscape:rounded="0"
           inkscape:randomized="0"
           d="m 78.949142,371.3599 -1.093328,-0.6323 -1.140705,0.54219 0.263503,-1.23521 -0.868152,-0.91733 1.256182,-0.13109 0.604157,-1.10914 0.51286,1.15419 1.241542,0.23185 -0.939218,0.84442 z"
           transform="scale(0.26458333)"
           inkscape:transform-center-x="-0.0062672909"
           inkscape:transform-center-y="-0.042054469" />
      </g>
      <text
         xml:space="preserve"
         transform="scale(0.26458333)"
         id="text19070"
         style="line-height:1.25;font-family:'Altform TRIAL';font-size:48px;-inkscape-font-specification:'Altform TRIAL';white-space:pre;shape-inside:url(#rect19072);fill:#000000" />
    </g>
    <text
       xml:space="preserve"
       transform="scale(0.26458333)"
       id="text22433"
       style="font-size:48px;line-height:1.25;font-family:sans-serif;white-space:pre;shape-inside:url(#rect22435)" />
    <text
       xml:space="preserve"
       transform="scale(0.26458333)"
       id="text26309"
       style="font-size:48px;line-height:1.25;font-family:sans-serif;white-space:pre;shape-inside:url(#rect26311)" />
    <text
       xml:space="preserve"
       transform="scale(0.26458333)"
       id="text46864"
       style="font-size:48px;line-height:1.25;font-family:sans-serif;white-space:pre;shape-inside:url(#rect46866)" />
    <text
       xml:space="preserve"
       transform="scale(0.26458333)"
       id="text57229"
       style="font-size:48px;line-height:1.25;font-family:sans-serif;white-space:pre;shape-inside:url(#rect57231)" />
    <text
       xml:space="preserve"
       transform="scale(0.26458333)"
       id="text61073"
       style="font-size:48px;line-height:1.25;font-family:sans-serif;white-space:pre;shape-inside:url(#rect61075)" />
    <path
       sodipodi:type="star"
       style="fill:#ffcc00"
       id="path359"
       inkscape:flatsided="false"
       sodipodi:sides="5"
       sodipodi:cx="749.65588"
       sodipodi:cy="280.29555"
       sodipodi:r1="11.990556"
       sodipodi:r2="5.9952779"
       sodipodi:arg1="0.92618392"
       sodipodi:arg2="1.5545024"
       inkscape:rounded="0"
       inkscape:randomized="0"
       d="m 756.86087,289.88001 -7.1073,-3.58997 -6.98657,3.81963 1.21798,-7.86881 -5.79165,-5.46429 7.86006,-1.27323 3.40713,-7.19674 3.63981,7.08191 7.89737,1.01646 -5.61054,5.65009 z"
       transform="scale(0.26458333)"
       inkscape:transform-center-x="0.015975612"
       inkscape:transform-center-y="-0.28771625" />
  </g>
</svg>
